<svg width="151" height="134" viewBox="0 0 151 134" fill="none" xmlns="http://www.w3.org/2000/svg">
<path d="M69.7197 3.95805C66.8198 7.59256 66.3364 7.75058 66.3364 5.22223C66.1753 2.37784 66.1753 2.37784 64.5643 5.06421C63.7587 6.48641 63.2754 8.38267 63.9199 9.17278C64.4032 10.1209 62.631 10.595 59.8922 10.595C57.1534 10.437 54.0924 11.3851 52.9646 12.4912C51.3536 14.0715 51.5147 14.3875 53.6091 13.5974C55.059 13.1233 56.9923 13.2814 58.12 14.0715C59.4089 14.7036 58.2811 15.6517 54.8979 16.2838C49.0981 17.3899 49.2592 18.6541 55.5423 19.1282C57.7978 19.2862 59.2478 20.0763 58.9256 20.7084C58.4422 21.4985 57.6367 21.6565 56.9923 21.3405C56.3479 21.0244 55.7034 22.4466 55.7034 24.5009C55.3812 28.6095 56.6701 28.2934 62.3088 23.3948C65.692 20.3923 65.692 20.5504 65.2087 26.3972L64.5643 32.244L66.8198 27.6614L68.9141 22.9207L73.1029 35.5624C79.7082 54.5251 80.0305 53.2609 67.3031 57.8435C56.1868 61.7941 56.1868 61.7941 45.7149 59.1077C38.1429 57.0534 32.5042 56.5794 24.1267 57.3695L13.0103 58.3176L15.9102 53.4189C19.9379 46.624 37.3373 30.9798 43.4594 28.4515C46.3593 27.1873 48.6148 25.291 48.6148 24.1849C48.6148 21.0244 47.3259 21.3405 37.9818 26.5552C25.2544 33.8242 4.1495 57.8435 7.53272 61.162C8.17715 61.7941 16.7158 62.2681 26.5432 62.2681C36.6929 62.2681 45.876 63.0583 47.487 64.0064C50.0647 65.4286 49.0981 66.2187 40.2373 69.5372C32.3431 72.5396 27.0266 73.3297 16.0713 73.1717C-0.361475 73.1717 0.28295 72.3815 0.28295 93.0824C0.444056 104.302 0.766268 106.04 2.53843 103.828C4.3106 101.3 5.11613 101.3 11.7215 103.67C16.5547 105.25 22.5156 105.882 30.2487 105.408C39.915 104.776 44.5871 103.354 59.4089 96.5589C69.0752 91.9763 77.9361 88.3418 79.2249 88.3418C80.5138 88.3418 85.347 91.1862 90.019 94.6626C101.296 103.038 105.969 105.25 115.474 106.672C122.724 107.62 123.368 107.62 121.274 105.25C120.146 103.828 116.602 102.248 113.218 101.616C106.13 100.351 103.391 98.9292 94.2078 92.1343L87.1191 86.9196L91.469 85.8134C97.4299 84.3912 112.413 85.9714 121.918 89.1319C126.429 90.7121 134.001 94.6626 138.834 97.9811C143.828 101.458 148.339 104.144 148.984 104.144C149.628 104.144 150.112 99.8774 150.112 94.6626C150.112 72.3815 142.056 53.2609 126.268 37.9328C118.857 30.8218 115.474 28.4515 114.668 29.8737C113.863 31.2959 116.279 34.4563 121.757 39.513C134.968 51.3646 145.44 73.6457 145.278 89.764L145.117 97.033L140.606 87.2356C131.423 68.115 115.474 55.9473 96.6244 53.893L86.958 52.7868L90.5024 48.8363L94.0467 44.8857L93.0801 48.8363C92.4356 52.3128 92.4356 52.4708 94.3689 50.1005C96.3022 47.5721 96.6244 47.5721 99.2021 50.1005C101.941 52.6288 102.102 52.6288 100.974 48.8363C99.8465 45.3598 100.008 45.2018 102.424 47.098C103.874 48.2042 105.002 48.5202 105.002 47.5721C105.002 46.782 103.874 45.0438 102.263 43.9376C99.8465 41.8833 100.169 41.5673 104.357 40.7772L109.03 39.829L103.713 38.5649C98.7188 37.4587 98.5577 37.1427 101.135 34.4563C104.196 31.1378 103.23 30.6638 98.3966 33.1921C95.8189 34.4563 94.3689 34.2983 91.6301 31.9279C88.7302 29.3996 88.408 29.3996 89.3746 31.7699C90.1802 34.1402 89.5357 34.4563 85.1859 33.6662L80.0305 32.8761L83.7359 35.8785C87.9247 39.513 88.2469 40.9352 85.0247 40.9352C83.7359 40.9352 82.1248 41.7253 81.4804 42.6734C80.836 43.9376 81.9637 44.0956 85.5081 43.3055C91.469 42.0413 91.6301 43.3055 86.4747 49.6264L82.6082 54.209L81.1582 50.4165C76.0028 37.1427 71.1696 23.0787 71.1696 21.8145C71.1696 21.0244 73.4251 21.3405 76.0028 22.7627C80.3527 24.975 80.836 24.975 80.836 22.7627C80.836 21.3405 79.2249 19.6022 77.2917 18.6541C74.2306 17.3899 74.8751 17.2319 80.5138 17.864C86.3136 18.4961 87.1191 18.18 85.5081 16.2838C84.5414 15.0196 81.8026 14.0715 79.386 13.9134L75.1973 13.7554L80.0305 11.7011C84.0581 9.96289 84.3803 9.48882 81.9637 8.54069C80.5138 7.90861 77.4528 7.9086 75.1973 8.38267C71.0085 9.48882 71.0085 9.48883 73.5862 4.59015C76.6472 -1.25666 74.2306 -1.57271 69.7197 3.95805ZM109.513 61.7941L117.085 65.4286L105.002 65.9027C94.6911 66.2187 91.1468 67.1668 82.4471 71.7495C50.3869 88.4998 48.7759 88.9738 33.3097 89.6059C16.5547 90.238 5.92166 87.5516 5.92166 82.653C5.92166 79.9666 7.53272 79.4925 18.8101 78.7024C31.6986 77.5963 41.2039 74.7519 57.1534 66.6928C69.7197 60.3719 77.2917 58.4756 90.1801 58.4756C99.041 58.3176 103.552 59.1077 109.513 61.7941Z" fill="white"/>
<path d="M10.7762 118.04C8.29516 122.155 8.4133 129.381 11.1306 131.388C15.2657 134.6 22 132.693 22 128.478C22 126.27 21.5274 125.969 18.2194 126.27C16.0927 126.47 14.4387 126.972 14.675 127.574C14.9113 128.076 16.4472 128.377 18.2194 128.277C20.9367 127.876 21.0548 128.076 19.7552 129.481C17.7468 131.589 13.021 131.589 12.0758 129.481C9.94919 124.865 12.1939 117.036 15.502 117.036C17.8649 117.036 19.9915 120.649 19.0464 123.058C18.5738 124.262 18.8101 125.065 19.519 125.065C21.173 125.065 21.173 119.545 19.6371 116.936C17.6286 113.925 12.9028 114.527 10.7762 118.04Z" fill="white"/>
<path d="M43.6479 120.109C42.5921 126.802 42.8267 130.584 44.3518 131.845C46.1115 133.3 51.8598 133.397 52.9156 132.039C53.3848 131.457 51.8598 131.069 49.2789 131.069H44.9383L45.6422 123.795C46.4634 115.939 44.821 112.835 43.6479 120.109Z" fill="white"/>
<path d="M110.83 118.64C110.83 121.674 110.48 122.079 108.615 121.573C105.583 120.764 103.602 124 104.068 128.955C104.418 132.494 104.651 132.697 108.498 132.798L112.578 133L112.928 124C113.161 118.135 112.811 115 112.112 115C111.413 115 110.83 116.618 110.83 118.64ZM110.596 125.921C111.063 128.348 108.964 132.191 107.332 132.191C106.05 132.191 105.7 124.809 106.982 123.697C108.381 122.584 110.247 123.697 110.596 125.921Z" fill="white"/>
<path d="M26.8233 122.457C24.2478 124.612 24.4718 131.37 27.0472 132.545C32.4221 135.092 36.6772 126.277 31.9742 122.555C29.3987 120.498 28.9508 120.498 26.8233 122.457ZM31.1904 127.354C31.1904 130.195 30.7425 131.272 29.2868 131.468C27.6071 131.762 27.2712 131.076 27.2712 127.942C27.2712 125.885 27.6071 123.828 28.055 123.437C29.7347 121.967 31.1904 123.73 31.1904 127.354Z" fill="white"/>
<path d="M70.1111 123.077C69.2937 123.837 68.8266 126.309 69.0601 128.591C69.4104 132.203 69.7608 132.678 72.4466 132.963C74.0815 133.153 76.0667 132.583 77.0009 131.728C79.1029 129.731 77.5848 128.781 75.2493 130.682C72.797 132.678 71.5124 132.583 70.5782 130.397C69.8776 128.4 71.746 123.647 73.3808 123.647C73.9647 123.647 74.6654 124.788 74.8989 126.214C75.366 128.591 75.4828 128.686 76.417 127.07C78.2855 123.552 73.0305 120.225 70.1111 123.077Z" fill="white"/>
<path d="M82.1417 122.224C80.0285 124.359 79.3242 128.73 80.7329 131.068C82.4939 133.914 88.1289 133.507 88.8333 130.56C89.1855 128.527 89.1855 128.527 86.7202 130.458C83.3156 133.203 81.3199 131.373 82.3765 126.595C83.3156 122.122 86.6028 121.512 86.6028 125.68C86.6028 127.917 86.8375 128.222 87.7767 127.002C89.3029 124.969 89.1855 124.359 87.0723 122.529C84.8418 120.598 83.7852 120.496 82.1417 122.224Z" fill="white"/>
<path d="M133.046 122.601C130.888 124.895 130.289 129.782 131.967 131.677C133.885 133.871 140 133.173 140 130.779C140 129.383 139.64 129.383 137.242 130.779C134.605 132.176 132.806 131.976 132.806 130.081C132.806 129.682 133.766 129.283 135.084 129.283C137.842 129.283 140.48 126.79 139.64 124.895C138.561 122.601 134.485 121.105 133.046 122.601ZM137.242 126.69C136.763 127.588 135.924 128.286 135.204 128.286C133.885 128.286 133.526 124.995 134.845 123.898C136.163 122.9 137.962 124.995 137.242 126.69Z" fill="white"/>
<path d="M57.6368 123.85C56.9154 124.956 56.9154 126.061 57.5166 126.363C58.1178 126.664 58.8392 125.961 59.1999 124.855C59.9214 122.444 62.8072 122.745 63.4084 125.257C63.6489 126.363 63.0477 126.966 61.3643 126.966C60.0416 126.966 58.1178 127.669 57.0356 128.574C54.5105 130.684 56.9154 133.297 60.8833 132.694C62.4465 132.493 63.6489 132.694 63.6489 133.096C63.6489 133.598 64.2501 134 64.8513 134C66.5347 134 66.2942 124.554 64.6108 123.147C62.4465 121.338 59.0797 121.74 57.6368 123.85ZM63.0477 130.081C62.0857 131.287 58.8392 131.287 58.8392 130.081C58.8392 128.975 61.4845 128.071 62.8072 128.674C63.2882 128.875 63.4084 129.578 63.0477 130.081Z" fill="white"/>
<path d="M93.8659 122.498C93.4033 122.915 93.0564 124.269 93.0564 125.415C93.0564 127.499 93.0564 127.499 94.9066 125.207C95.8316 123.957 97.2192 123.123 97.7973 123.436C99.8787 124.686 98.838 126.665 95.3691 127.811C90.9751 129.27 90.8594 132.082 95.1378 132.916C96.8723 133.228 98.9537 133.645 99.7631 133.957C100.919 134.27 101.151 132.916 100.919 128.332C100.573 122.811 100.341 122.394 97.6817 122.082C96.0629 121.873 94.3284 122.082 93.8659 122.498ZM98.838 130.311C98.838 130.832 97.7973 131.249 96.5254 131.249C93.9815 131.249 93.4033 129.582 95.716 128.853C97.4505 128.332 98.838 128.957 98.838 130.311Z" fill="white"/>
<path d="M116 127.5C116 130.5 116.5 133 117 133C117.6 133 118 130.5 118 127.5C118 124.5 117.6 122 117 122C116.5 122 116 124.5 116 127.5Z" fill="white"/>
<path d="M121 124.74C121 128.089 123.396 132.35 125.432 132.959C127.11 133.365 128.547 130.727 129.745 125.247C130.224 123.421 129.985 122 129.386 122C128.787 122 127.828 123.827 127.469 126.059C126.391 131.742 125.073 131.945 123.516 126.566C121.958 121.391 121 120.681 121 124.74Z" fill="white"/>
</svg>
