<?xml version="1.0" standalone="no"?>
<!DOCTYPE svg PUBLIC "-//W3C//DTD SVG 20010904//EN"
 "http://www.w3.org/TR/2001/REC-SVG-20010904/DTD/svg10.dtd">
<svg version="1.0" xmlns="http://www.w3.org/2000/svg"
 width="180.000000pt" height="180.000000pt" viewBox="0 0 180.000000 180.000000"
 preserveAspectRatio="xMidYMid meet">

<g transform="translate(0.000000,180.000000) scale(0.100000,-0.100000)"
fill="#000000" stroke="none">
<path d="M861 1424 c-18 -23 -21 -24 -21 -8 -1 18 -1 18 -11 1 -5 -9 -8 -21
-4 -26 3 -6 -8 -9 -25 -9 -17 1 -36 -5 -43 -12 -10 -10 -9 -12 4 -7 9 3 21 2
28 -3 8 -4 1 -10 -20 -14 -36 -7 -35 -15 4 -18 14 -1 23 -6 21 -10 -3 -5 -8
-6 -12 -4 -4 2 -8 -7 -8 -20 -2 -26 6 -24 41 7 21 19 21 18 18 -19 l-4 -37 14
29 13 30 26 -80 c41 -120 43 -112 -36 -141 -69 -25 -69 -25 -134 -8 -47 13
-82 16 -134 11 l-69 -6 18 31 c25 43 133 142 171 158 18 8 32 20 32 27 0 20
-8 18 -66 -15 -79 -46 -210 -198 -189 -219 4 -4 57 -7 118 -7 63 0 120 -5 130
-11 16 -9 10 -14 -45 -35 -49 -19 -82 -24 -150 -23 -102 0 -98 5 -98 -126 1
-71 3 -82 14 -68 11 16 16 16 57 1 30 -10 67 -14 115 -11 60 4 89 13 181 56
60 29 115 52 123 52 8 0 38 -18 67 -40 70 -53 99 -67 158 -76 45 -6 49 -6 36
9 -7 9 -29 19 -50 23 -44 8 -61 17 -118 60 l-44 33 27 7 c37 9 130 -1 189 -21
28 -10 75 -35 105 -56 31 -22 59 -39 63 -39 4 0 7 27 7 60 0 141 -50 262 -148
359 -46 45 -67 60 -72 51 -5 -9 10 -29 44 -61 82 -75 147 -216 146 -318 l-1
-46 -28 62 c-57 121 -156 198 -273 211 l-60 7 22 25 22 25 -6 -25 c-4 -22 -4
-23 8 -8 12 16 14 16 30 0 17 -16 18 -16 11 8 -7 22 -6 23 9 11 9 -7 16 -9 16
-3 0 5 -7 16 -17 23 -15 13 -13 15 13 20 l29 6 -33 8 c-31 7 -32 9 -16 26 19
21 13 24 -17 8 -16 -8 -25 -7 -42 8 -18 16 -20 16 -14 1 5 -15 1 -17 -26 -12
l-32 5 23 -19 c26 -23 28 -32 8 -32 -8 0 -18 -5 -22 -11 -4 -8 3 -9 25 -4 37
8 38 0 6 -40 l-24 -29 -9 24 c-32 84 -62 173 -62 181 0 5 14 3 30 -6 27 -14
30 -14 30 0 0 9 -10 20 -22 26 -19 8 -15 9 20 5 36 -4 41 -2 31 10 -6 8 -23
14 -38 15 l-26 1 30 13 c25 11 27 14 12 20 -9 4 -28 4 -42 1 -26 -7 -26 -7
-10 24 19 37 4 39 -24 4z m247 -366 l47 -23 -75 -3 c-64 -2 -86 -8 -140 -37
-199 -106 -209 -109 -305 -113 -104 -4 -170 13 -170 44 0 17 10 20 80 25 80 7
139 25 238 76 78 40 125 52 205 52 55 1 83 -4 120 -21z"/>
<path d="M375 720 c-21 -41 -20 -113 3 -133 35 -32 92 -13 92 29 0 22 -4 25
-32 22 -18 -2 -32 -7 -30 -13 2 -5 15 -8 30 -7 23 4 24 2 13 -12 -17 -21 -57
-21 -65 0 -18 46 1 124 29 124 20 0 38 -36 30 -60 -4 -12 -2 -20 4 -20 14 0
14 55 1 81 -17 30 -57 24 -75 -11z"/>
<path d="M646 703 c-9 -69 -7 -108 6 -121 15 -15 64 -16 73 -2 4 6 -9 10 -31
10 l-37 0 6 75 c7 81 -7 113 -17 38z"/>
<path d="M1200 714 c0 -30 -3 -34 -19 -29 -26 8 -43 -24 -39 -73 3 -35 5 -37
38 -38 l35 -2 3 89 c2 58 -1 89 -7 89 -6 0 -11 -16 -11 -36z m-2 -72 c4 -24
-14 -62 -28 -62 -11 0 -14 73 -3 84 12 11 28 0 31 -22z"/>
<path d="M1240 710 c0 -5 5 -10 10 -10 6 0 10 5 10 10 0 6 -4 10 -10 10 -5 0
-10 -4 -10 -10z"/>
<path d="M506 674 c-23 -22 -21 -91 2 -103 48 -26 86 64 44 102 -23 21 -27 21
-46 1z m39 -50 c0 -29 -4 -40 -17 -42 -15 -3 -18 4 -18 36 0 21 3 42 7 46 15
15 28 -3 28 -40z"/>
<path d="M861 676 c-7 -8 -11 -34 -9 -58 3 -38 6 -43 29 -46 14 -2 31 4 39 13
18 21 5 31 -15 11 -21 -21 -32 -20 -40 3 -6 21 10 71 24 71 5 0 11 -12 13 -27
4 -25 5 -26 13 -9 16 37 -29 72 -54 42z"/>
<path d="M962 677 c-18 -21 -24 -64 -12 -87 15 -28 63 -24 69 5 3 20 3 20 -18
1 -29 -27 -46 -9 -37 38 8 44 36 50 36 9 0 -22 2 -25 10 -13 13 20 12 26 -6
44 -19 19 -28 20 -42 3z"/>
<path d="M1382 677 c-18 -23 -23 -72 -9 -91 16 -22 67 -15 67 9 0 14 -3 14
-23 0 -22 -14 -37 -12 -37 7 0 4 8 8 19 8 23 0 45 25 38 44 -9 23 -43 38 -55
23z m35 -41 c-4 -9 -11 -16 -17 -16 -11 0 -14 33 -3 44 11 10 26 -11 20 -28z"/>
<path d="M760 661 c-6 -11 -6 -22 -1 -25 5 -3 11 4 14 15 6 24 30 21 35 -4 2
-11 -3 -17 -17 -17 -11 0 -27 -7 -36 -16 -21 -21 -1 -47 32 -41 13 2 23 0 23
-4 0 -5 5 -9 10 -9 14 0 12 94 -2 108 -18 18 -46 14 -58 -7z m45 -62 c-8 -12
-35 -12 -35 0 0 11 22 20 33 14 4 -2 5 -9 2 -14z"/>
<path d="M1057 674 c-4 -4 -7 -17 -7 -28 0 -20 0 -20 16 2 8 12 20 20 25 17
18 -12 9 -31 -21 -42 -38 -14 -39 -41 -2 -49 15 -3 33 -7 40 -10 10 -3 12 10
10 54 -3 53 -5 57 -28 60 -14 2 -29 0 -33 -4z m43 -75 c0 -5 -9 -9 -20 -9 -22
0 -27 16 -7 23 15 5 27 -1 27 -14z"/>
<path d="M1240 625 c0 -30 5 -55 10 -55 6 0 10 25 10 55 0 30 -4 55 -10 55 -5
0 -10 -25 -10 -55z"/>
<path d="M1280 653 c0 -33 20 -75 37 -81 14 -4 26 22 36 76 4 18 2 32 -3 32
-5 0 -13 -18 -16 -40 -9 -56 -20 -58 -33 -5 -13 51 -21 58 -21 18z"/>
</g>
</svg>
